<svg xmlns="http://www.w3.org/2000/svg" width="48" height="48" viewBox="0 0 48 48" role="img" aria-label="DevSecOps icon">
  <path d="M14 31c-4 0-7-3-7-7s3-7 7-7h6" fill="none" stroke="#2563EB" stroke-width="2.5" stroke-linecap="round"/>
  <path d="M34 17c4 0 7 3 7 7s-3 7-7 7h-6" fill="none" stroke="#2563EB" stroke-width="2.5" stroke-linecap="round"/>
  <path d="M17 24c3-5 7-8 12-8 3 0 6 1 8 4M31 24c-3 5-7 8-12 8-3 0-6-1-8-4" fill="none" stroke="#059669" stroke-width="2.5" stroke-linecap="round"/>
  <path d="M24 19l4 3v5l-4 3-4-3v-5l4-3z" fill="#F8FAFC" stroke="#334155" stroke-width="2"/>
</svg>
